<?xml version="1.0" standalone="no"?>
<!DOCTYPE svg PUBLIC "-//W3C//DTD SVG 20010904//EN"
 "http://www.w3.org/TR/2001/REC-SVG-20010904/DTD/svg10.dtd">
<svg version="1.0" xmlns="http://www.w3.org/2000/svg"
 width="1240.000000pt" height="1280.000000pt" viewBox="0 0 1240.000000 1280.000000"
 preserveAspectRatio="xMidYMid meet">
<metadata>
Created by potrace 1.15, written by Peter Selinger 2001-2017
</metadata>
<g transform="translate(0.000000,1280.000000) scale(0.100000,-0.100000)"
fill="#3f51b5" stroke="none">
<path d="M5736 12132 c-186 -367 -803 -1578 -1371 -2692 -568 -1114 -1457
-2857 -1975 -3875 -519 -1017 -1269 -2489 -1667 -3269 l-723 -1419 0 -98 c0
-84 2 -98 18 -103 9 -3 235 -54 502 -115 267 -60 863 -196 1325 -301 462 -105
908 -207 992 -226 99 -22 178 -34 225 -34 l73 0 529 1265 529 1265 1942 0
1942 0 538 -1122 c296 -618 569 -1187 606 -1265 l68 -141 38 8 c34 8 2181 475
2823 614 l245 53 3 99 3 100 -299 584 c-165 322 -573 1120 -907 1775 -334 655
-870 1703 -1190 2330 -783 1532 -2116 4142 -2832 5545 -322 630 -648 1268
-725 1418 l-139 272 -117 0 -117 -1 -339 -667z m794 -6012 c216 -476 395 -871
397 -877 4 -10 -160 -13 -801 -13 -443 0 -806 4 -806 8 0 4 23 59 51 122 28
63 201 457 386 875 184 418 340 769 345 779 10 19 11 18 23 -5 7 -13 189 -413
405 -889z"/>
</g>
</svg>
